<?xml version="1.0" standalone="no"?>
<!DOCTYPE svg PUBLIC "-//W3C//DTD SVG 20010904//EN"
 "http://www.w3.org/TR/2001/REC-SVG-20010904/DTD/svg10.dtd">
<svg version="1.0" xmlns="http://www.w3.org/2000/svg"
 width="1000.000000pt" height="1000.000000pt" viewBox="0 0 1000.000000 1000.000000"
 preserveAspectRatio="xMidYMid meet">
<metadata>
Created by potrace 1.11, written by Peter Selinger 2001-2013
</metadata>
<g transform="translate(0.000000,1000.000000) scale(0.100000,-0.100000)"
fill="#000000" stroke="none">
<path d="M3728 8634 c-698 -349 -1268 -636 -1268 -639 0 -3 572 -291 1270
-640 l1270 -635 1270 635 c699 349 1270 637 1270 640 0 4 -2536 1276 -2542
1274 -2 0 -573 -286 -1270 -635z"/>
<path d="M3722 5627 l-1262 -632 1270 -635 1270 -635 1270 635 1270 635 -1262
632 c-695 348 -1270 632 -1278 632 -8 0 -583 -284 -1278 -632z"/>
<path d="M3728 2634 c-698 -349 -1268 -636 -1268 -639 0 -3 572 -291 1270
-640 l1270 -635 1270 635 c699 349 1270 637 1270 640 0 4 -2536 1276 -2542
1274 -2 0 -573 -286 -1270 -635z"/>
</g>
</svg>
